PathFileType	4	(X/Y/Z)	C:\Users\WrightLab\Desktop\Jo\P2_Trial11.trc
DataRate	CameraRate	NumFrames	NumMarkers	Units	OrigDataRate	OrigDataStartFrame	OrigNumFrames
100.00	100.00	      11	19	mm	100.00	873	      1163
Frame#	Time	Headset_Front			Headset_Back			Headset_Left			Headset_Right			Left_Shoulder			Right_Shoulder			Sternum			C7			Left Elbow			Right Elbow			Left Wrist			Right Wrist			Left ASIS			Right ASIS			S2			Left Knee			Right Knee			Left Ankle			Right Ankle			
		X1	Y1	Z1	X2	Y2	Z2	X3	Y3	Z3	X4	Y4	Z4	X5	Y5	Z5	X6	Y6	Z6	X7	Y7	Z7	X8	Y8	Z8	X9	Y9	Z9	X10	Y10	Z10	X11	Y11	Z11	X12	Y12	Z12	X13	Y13	Z13	X14	Y14	Z14	X15	Y15	Z15	X16	Y16	Z16	X17	Y17	Z17	X18	Y18	Z18	X19	Y19	Z19	

873	8.720	-752.02332	1455.13037	-231.59247	-908.28821	1689.15540	-104.30207	-925.95233	1576.10583	-233.99681	-746.20166	1437.05762	-39.71964	-1071.11365	1444.68372	-96.32546				-896.30536	1320.79822	-123.16861	-917.47864	1438.49377	44.44715	-1141.12317	1135.47876	-100.84686	-661.18054	1119.89368	65.96342	-1121.02417	1107.97083	-255.99384	-616.21869	869.34381	55.82537	-929.52911	1037.16626	-152.29422	-799.90869	1036.14661	-133.63084	-906.82477	949.29620	110.70840	-1038.00537	431.43561	9.97620	-704.03497	563.24237	-81.96611	-990.35425	74.28953	58.45944	-691.14203	143.82028	-13.82903	
874	8.730	-755.31348	1455.28015	-237.69458	-909.39783	1688.55615	-107.85302	-929.06354	1576.15698	-237.60782	-747.63782	1436.59229	-46.00375	-1072.06604	1444.46594	-99.83760	-732.99292	1544.11646	-103.74243	-897.38947	1320.06531	-126.10632	-917.97351	1438.11145	40.69914	-1142.43188	1135.32642	-102.88004	-661.20923	1120.20764	61.11527	-1124.31738	1107.72351	-258.20828	-616.47668	869.61536	50.63688	-930.62347	1036.21594	-155.13553	-801.84467	1035.61011	-136.64285	-907.64142	948.45990	106.58148	-1038.13623	431.16553	8.36226	-704.28064	562.99231	-87.65307	-991.55719	73.40091	59.96225	-694.02515	141.96118	-23.61067	
875	8.740	-758.44104	1454.50537	-242.82797	-911.84058	1689.39111	-111.94021	-932.27051	1575.48315	-241.07069	-749.03931	1436.77759	-52.61251	-1072.87146	1444.19751	-102.96702	-734.31537	1543.27722	-108.71756	-898.62158	1319.63171	-130.31624	-918.33331	1437.85400	37.35520	-1143.93945	1135.62683	-105.43641	-660.97845	1119.63794	56.74095	-1127.50244	1107.69397	-260.59128	-615.66547	869.51794	44.72890	-931.43964	1035.43896	-157.67743	-802.34320	1035.09546	-139.79875	-908.23761	948.77551	105.18543	-1037.66919	430.77902	6.75608	-703.77435	563.01031	-92.34618	-992.92017	73.83195	59.57955	-697.03235	140.67294	-33.39442	
876	8.750	-761.56342	1454.26953	-249.16219	-913.01886	1689.15759	-115.76753	-935.22186	1575.40369	-244.86459	-749.56354	1435.62024	-54.24416	-1073.56543	1443.86438	-105.68121	-735.37994	1543.28162	-118.40324	-900.23688	1319.25598	-134.19218	-918.59729	1437.85327	33.20332	-1145.42664	1135.39050	-107.63925	-660.72290	1119.78198	51.59615	-1131.44250	1107.63672	-263.51190	-615.57361	869.29114	38.44621	-932.69775	1035.38367	-161.21031	-803.19904	1034.43457	-142.72534	-907.71838	948.91864	100.77326	-1037.89661	430.34576	4.72699	-703.24908	562.54626	-96.67591	-994.24799	74.25172	59.21447	-700.45013	138.30589	-43.27082	
877	8.760	-762.17517	1454.25684	-258.23056	-914.13409	1688.74219	-120.87070	-938.40271	1574.48035	-248.34325	-749.60834	1435.84863	-58.50772	-1074.33105	1443.54236	-108.64153				-901.16803	1318.75183	-138.03662	-918.02606	1437.84192	29.05470	-1147.04077	1135.50928	-110.75210	-660.31732	1119.64990	46.20699	-1135.44104	1108.10400	-266.94431	-615.34015	869.22870	33.20783	-933.89063	1034.66467	-164.27483	-804.29095	1034.60107	-147.17639	-907.94104	948.16052	96.47449	-1038.10608	429.65338	2.53682	-704.01855	562.29443	-100.32267	-995.00330	74.15249	58.80640	-703.16632	136.71439	-54.17539	
878	8.770	-765.97931	1453.43542	-264.99954	-915.36627	1688.29150	-124.85332	-941.03687	1573.99329	-252.65289	-750.11115	1434.67725	-67.49485	-1075.17273	1443.28625	-112.31895	-737.89142	1542.64160	-132.87601	-901.88037	1318.17126	-141.72150	-918.37927	1437.67542	24.89757	-1148.48840	1135.30237	-113.43930	-659.89716	1119.10510	40.31800	-1138.82568	1107.96631	-270.36407	-615.09973	869.14227	26.86750	-934.46686	1033.84583	-167.19705	-805.14508	1034.37488	-151.45451	-907.88702	948.33917	94.11358	-1037.79272	429.36975	-0.08127	-704.33783	562.23749	-103.17559	-995.97400	73.72729	59.33204	-706.84363	135.00635	-63.31376	
879	8.780	-769.82495	1452.46655	-268.72906	-916.99585	1688.22961	-129.92073	-943.93689	1573.01196	-256.21863	-751.10596	1433.65454	-75.70006	-1075.86523	1443.04529	-115.99415				-902.71521	1317.81311	-145.36650	-918.40204	1437.42957	20.52527	-1150.19543	1135.26440	-116.44080	-660.02789	1118.04126	34.67236	-1143.49414	1107.54919	-273.28391	-614.32556	869.19269	21.68045	-936.01086	1033.79468	-170.94856	-806.50702	1033.77063	-155.83681	-908.32080	948.19678	90.75987	-1037.65393	428.63153	-2.59177	-705.00165	562.18646	-106.84957	-996.96924	73.29873	59.76160	-709.33722	132.91844	-74.40002	
880	8.790	-771.24573	1452.44434	-276.94528	-918.42822	1687.77161	-134.97195	-946.46106	1572.15344	-260.68689	-750.62244	1434.58655	-75.40856	-1076.33081	1442.46594	-119.77765				-903.69769	1317.28455	-150.15718	-918.37555	1437.04651	16.10789	-1151.76624	1135.00549	-118.95531	-659.41132	1117.95752	29.83963				-613.08521	868.62836	15.38569	-936.93427	1033.40649	-174.87936	-807.06409	1033.16687	-159.20088	-907.92944	947.90009	87.14531	-1037.42004	428.81735	-4.37640	-706.75989	562.84473	-110.41753	-998.11530	73.28185	59.51322	-713.17767	131.50288	-84.64059	
881	8.800	-774.66821	1450.93958	-279.34445	-919.76025	1687.22290	-140.47296	-948.97504	1570.56921	-264.65625	-751.23566	1434.32239	-80.39179	-1076.72815	1441.90662	-123.01892	-740.34216	1542.82874	-165.20889	-904.51917	1316.39063	-154.00713	-918.19354	1436.86572	11.26656	-1153.03833	1134.99817	-122.44856	-658.87512	1117.77148	23.64750				-613.08997	868.87335	9.92524	-937.71637	1032.22424	-177.84509	-807.81451	1032.62793	-162.21872	-907.95313	947.21997	84.47456	-1037.33533	427.88562	-6.55196	-708.83667	562.23853	-113.78404	-999.08801	73.57125	58.73409	-716.15308	130.31032	-96.77361	
882	8.810	-776.74438	1449.38733	-284.22363	-921.05841	1686.49634	-145.71620	-951.61310	1568.07581	-271.55963	-751.66595	1433.86206	-86.01622	-1077.26721	1441.45508	-126.99570	-746.52350	1540.26575	-168.71796	-905.42920	1315.68799	-158.84688	-918.22516	1437.14355	6.80979	-1154.51196	1134.48291	-125.39586	-659.22852	1117.60620	17.93497				-612.48425	868.36353	3.00000	-938.59827	1031.52039	-180.67278	-808.92816	1032.25903	-167.34091	-907.75616	947.52557	80.87369	-1036.94495	427.20761	-9.40713	-711.78766	562.21918	-118.97121	-1000.08368	73.14809	58.77153	-719.58673	129.13811	-107.94460	
883	8.820	-778.71259	1448.74341	-289.48590	-922.50684	1686.00793	-152.12035	-953.78241	1566.66296	-276.34756	-752.23883	1432.68542	-91.84097	-1077.73914	1441.00037	-131.78082	-745.44598	1541.61426	-174.76239	-906.58472	1314.81201	-163.26419	-918.00964	1436.40723	1.58249	-1156.05066	1133.89954	-128.51088	-657.60651	1117.67822	11.10408				-611.83722	868.05072	-3.10169	-939.75751	1031.14502	-184.93283	-810.25598	1030.89246	-170.62723	-907.42596	946.96362	77.26974	-1036.64404	426.70245	-11.31751	-715.29773	561.63818	-122.64902	-1001.00366	73.37637	58.01165	-723.18304	127.64615	-119.13242	
